<svg xmlns="http://www.w3.org/2000/svg" xmlns:xlink="http://www.w3.org/1999/xlink" width="500" zoomAndPan="magnify" viewBox="0 0 375 374.999991" height="500" preserveAspectRatio="xMidYMid meet" version="1.0"><defs><clipPath id="1c7eef6136"><path d="M 25.226562 0 L 349.976562 0 L 349.976562 375 L 25.226562 375 Z M 25.226562 0 " clip-rule="nonzero"/></clipPath></defs><g clip-path="url(#1c7eef6136)"><path fill="#0d0d0d" d="M 25.226562 93.8125 L 25.226562 281.1875 L 187.503906 374.878906 L 349.773438 281.1875 L 349.773438 93.8125 L 187.503906 0.121094 Z M 25.226562 93.8125 " fill-opacity="1" fill-rule="nonzero"/></g><path fill="#916a15" d="M 212.589844 84.5625 L 242.570312 84.5625 L 242.570312 153.171875 L 212.589844 153.171875 Z M 212.589844 84.5625 " fill-opacity="1" fill-rule="nonzero"/><path fill="#f8f9f0" d="M 218.070312 212.445312 L 269.179688 239.492188 L 269.179688 151.441406 Z M 218.070312 212.445312 " fill-opacity="1" fill-rule="nonzero"/><path fill="#f8f9f0" d="M 102.785156 239.492188 L 269.179688 151.441406 L 185.984375 104.617188 L 102.785156 151.441406 Z M 102.785156 239.492188 " fill-opacity="1" fill-rule="nonzero"/><path fill="#0d0d0d" d="M 206.011719 151.441406 C 206.011719 152.097656 205.976562 152.75 205.914062 153.402344 C 205.847656 154.058594 205.753906 154.703125 205.625 155.347656 C 205.496094 155.992188 205.335938 156.625 205.148438 157.253906 C 204.957031 157.882812 204.734375 158.5 204.484375 159.105469 C 204.234375 159.710938 203.953125 160.304688 203.644531 160.882812 C 203.335938 161.460938 203 162.023438 202.632812 162.566406 C 202.269531 163.113281 201.878906 163.640625 201.464844 164.144531 C 201.046875 164.652344 200.609375 165.136719 200.144531 165.601562 C 199.679688 166.066406 199.195312 166.507812 198.6875 166.921875 C 198.179688 167.339844 197.65625 167.726562 197.109375 168.09375 C 196.5625 168.457031 196 168.792969 195.421875 169.101562 C 194.84375 169.414062 194.253906 169.691406 193.648438 169.945312 C 193.039062 170.195312 192.425781 170.414062 191.796875 170.605469 C 191.167969 170.796875 190.53125 170.957031 189.890625 171.082031 C 189.246094 171.210938 188.597656 171.308594 187.945312 171.371094 C 187.292969 171.4375 186.640625 171.46875 185.984375 171.46875 C 185.328125 171.46875 184.671875 171.4375 184.019531 171.371094 C 183.367188 171.308594 182.71875 171.210938 182.074219 171.082031 C 181.433594 170.957031 180.796875 170.796875 180.167969 170.605469 C 179.542969 170.414062 178.925781 170.195312 178.320312 169.945312 C 177.710938 169.691406 177.121094 169.414062 176.542969 169.101562 C 175.964844 168.792969 175.402344 168.457031 174.855469 168.09375 C 174.3125 167.726562 173.785156 167.339844 173.277344 166.921875 C 172.769531 166.507812 172.285156 166.066406 171.820312 165.601562 C 171.359375 165.136719 170.917969 164.652344 170.5 164.144531 C 170.085938 163.640625 169.695312 163.113281 169.332031 162.566406 C 168.964844 162.023438 168.628906 161.460938 168.320312 160.882812 C 168.011719 160.304688 167.730469 159.710938 167.480469 159.105469 C 167.230469 158.5 167.007812 157.882812 166.816406 157.253906 C 166.628906 156.625 166.46875 155.992188 166.339844 155.347656 C 166.210938 154.703125 166.117188 154.058594 166.050781 153.402344 C 165.988281 152.75 165.957031 152.097656 165.957031 151.441406 C 165.957031 150.785156 165.988281 150.128906 166.050781 149.476562 C 166.117188 148.824219 166.210938 148.175781 166.339844 147.535156 C 166.46875 146.890625 166.628906 146.253906 166.816406 145.628906 C 167.007812 145 167.230469 144.382812 167.480469 143.777344 C 167.730469 143.171875 168.011719 142.578125 168.320312 142 C 168.628906 141.421875 168.964844 140.859375 169.332031 140.316406 C 169.695312 139.769531 170.085938 139.242188 170.5 138.734375 C 170.917969 138.230469 171.359375 137.742188 171.820312 137.28125 C 172.285156 136.816406 172.769531 136.375 173.277344 135.960938 C 173.785156 135.542969 174.3125 135.152344 174.855469 134.789062 C 175.402344 134.425781 175.964844 134.089844 176.542969 133.777344 C 177.121094 133.46875 177.710938 133.1875 178.320312 132.9375 C 178.925781 132.6875 179.542969 132.464844 180.167969 132.277344 C 180.796875 132.085938 181.433594 131.925781 182.074219 131.796875 C 182.71875 131.671875 183.367188 131.574219 184.019531 131.511719 C 184.671875 131.445312 185.328125 131.414062 185.984375 131.414062 C 186.640625 131.414062 187.292969 131.445312 187.945312 131.511719 C 188.597656 131.574219 189.246094 131.671875 189.890625 131.796875 C 190.53125 131.925781 191.167969 132.085938 191.796875 132.277344 C 192.425781 132.464844 193.039062 132.6875 193.648438 132.9375 C 194.253906 133.1875 194.84375 133.46875 195.421875 133.777344 C 196 134.089844 196.5625 134.425781 197.109375 134.789062 C 197.65625 135.152344 198.179688 135.542969 198.6875 135.960938 C 199.195312 136.375 199.679688 136.816406 200.144531 137.28125 C 200.609375 137.742188 201.046875 138.230469 201.464844 138.734375 C 201.878906 139.242188 202.269531 139.769531 202.632812 140.316406 C 203 140.859375 203.335938 141.421875 203.644531 142 C 203.953125 142.578125 204.234375 143.171875 204.484375 143.777344 C 204.734375 144.382812 204.957031 145 205.148438 145.628906 C 205.335938 146.253906 205.496094 146.890625 205.625 147.535156 C 205.753906 148.175781 205.847656 148.824219 205.914062 149.476562 C 205.976562 150.128906 206.011719 150.785156 206.011719 151.441406 Z M 206.011719 151.441406 " fill-opacity="1" fill-rule="nonzero"/><path fill="#916a15" d="M 149.453125 269.8125 C 149.347656 269.246094 149.214844 268.691406 149.058594 268.136719 C 148.898438 267.585938 148.714844 267.042969 148.503906 266.511719 C 148.292969 265.976562 148.054688 265.457031 147.792969 264.945312 C 147.527344 264.4375 147.242188 263.941406 146.929688 263.457031 C 146.617188 262.976562 146.285156 262.511719 145.929688 262.0625 C 145.570312 261.613281 145.191406 261.183594 144.792969 260.769531 C 144.394531 260.359375 143.976562 259.96875 143.539062 259.597656 C 143.101562 259.226562 142.648438 258.875 142.175781 258.550781 C 141.703125 258.222656 141.214844 257.921875 140.714844 257.640625 C 140.214844 257.363281 139.699219 257.109375 139.175781 256.882812 C 138.648438 256.652344 138.113281 256.449219 137.566406 256.273438 C 137.019531 256.097656 136.464844 255.949219 135.90625 255.828125 C 135.34375 255.707031 134.78125 255.613281 134.210938 255.546875 C 133.640625 255.480469 133.070312 255.441406 132.496094 255.429688 C 131.921875 255.421875 131.347656 255.4375 130.777344 255.484375 C 130.207031 255.53125 129.636719 255.605469 129.074219 255.707031 C 128.421875 255.855469 127.722656 255.976562 127.078125 256.191406 L 129.550781 236.808594 L 166.726562 217.1875 L 167.328125 216.886719 C 173.367188 213.351562 169.777344 204.148438 169.742188 204.101562 L 131.125 224.445312 L 136.648438 181.136719 C 136.648438 181.136719 126.757812 181.007812 125.558594 187.882812 L 125.480469 188.550781 L 120.109375 230.222656 L 102.816406 239.335938 C 102.757812 238.585938 102.667969 237.957031 102.546875 237.269531 C 102.445312 236.703125 102.316406 236.144531 102.160156 235.59375 C 102.003906 235.042969 101.820312 234.5 101.609375 233.964844 C 101.398438 233.433594 101.164062 232.910156 100.902344 232.398438 C 100.640625 231.890625 100.355469 231.394531 100.042969 230.910156 C 99.734375 230.429688 99.402344 229.960938 99.046875 229.511719 C 98.691406 229.0625 98.3125 228.632812 97.914062 228.21875 C 97.515625 227.808594 97.097656 227.414062 96.664062 227.042969 C 96.226562 226.671875 95.773438 226.324219 95.300781 225.996094 C 94.828125 225.667969 94.34375 225.367188 93.84375 225.085938 C 93.34375 224.808594 92.828125 224.554688 92.304688 224.324219 C 91.777344 224.09375 91.242188 223.894531 90.695312 223.71875 C 90.148438 223.539062 89.597656 223.390625 89.035156 223.269531 C 88.476562 223.148438 87.910156 223.054688 87.34375 222.988281 C 86.773438 222.921875 86.199219 222.882812 85.628906 222.875 C 85.054688 222.863281 84.480469 222.882812 83.910156 222.925781 C 83.339844 222.972656 82.769531 223.046875 82.207031 223.148438 C 81.640625 223.25 81.085938 223.378906 80.53125 223.535156 C 79.980469 223.695312 79.4375 223.875 78.90625 224.085938 C 78.371094 224.296875 77.847656 224.53125 77.339844 224.792969 C 76.828125 225.054688 76.332031 225.339844 75.851562 225.652344 C 75.367188 225.960938 74.902344 226.292969 74.453125 226.648438 C 74.003906 227.003906 73.570312 227.382812 73.160156 227.78125 C 72.746094 228.179688 72.355469 228.597656 71.980469 229.03125 C 71.609375 229.46875 71.261719 229.921875 70.933594 230.394531 C 70.605469 230.867188 70.304688 231.351562 70.023438 231.851562 C 69.746094 232.351562 69.492188 232.867188 69.261719 233.390625 C 69.035156 233.917969 68.832031 234.453125 68.65625 235 C 68.480469 235.546875 68.332031 236.097656 68.207031 236.660156 C 68.085938 237.21875 67.992188 237.785156 67.925781 238.351562 C 67.859375 238.921875 67.820312 239.496094 67.8125 240.066406 C 67.800781 240.640625 67.820312 241.214844 67.863281 241.785156 C 67.910156 242.355469 67.984375 242.925781 68.085938 243.488281 C 68.1875 244.054688 68.316406 244.609375 68.476562 245.164062 C 68.632812 245.714844 68.816406 246.257812 69.023438 246.789062 C 69.234375 247.324219 69.46875 247.847656 69.730469 248.355469 C 69.992188 248.867188 70.277344 249.363281 70.589844 249.847656 C 70.898438 250.328125 71.230469 250.792969 71.585938 251.242188 C 71.941406 251.695312 72.320312 252.125 72.71875 252.539062 C 73.117188 252.949219 73.535156 253.34375 73.96875 253.714844 C 74.40625 254.085938 74.859375 254.433594 75.332031 254.761719 C 75.804688 255.089844 76.289062 255.390625 76.789062 255.671875 C 77.289062 255.949219 77.804688 256.203125 78.328125 256.433594 C 78.855469 256.660156 79.390625 256.863281 79.9375 257.039062 C 80.484375 257.214844 81.035156 257.367188 81.597656 257.488281 C 82.15625 257.609375 82.722656 257.703125 83.289062 257.769531 C 83.859375 257.835938 84.433594 257.875 85.003906 257.886719 C 85.578125 257.894531 86.152344 257.878906 86.722656 257.832031 C 87.292969 257.785156 87.863281 257.710938 88.425781 257.609375 C 89.664062 257.402344 90.859375 257.054688 92.015625 256.566406 C 93.042969 256.136719 94.027344 255.621094 94.96875 255.023438 L 118.511719 242.605469 L 115.101562 269.046875 C 114.617188 271.363281 114.570312 273.683594 114.957031 276.015625 C 115.046875 276.597656 115.160156 277.167969 115.304688 277.734375 C 115.449219 278.300781 115.621094 278.859375 115.820312 279.410156 C 116.019531 279.960938 116.246094 280.5 116.5 281.023438 C 116.753906 281.550781 117.03125 282.066406 117.335938 282.5625 C 117.640625 283.0625 117.96875 283.546875 118.324219 284.011719 C 118.675781 284.476562 119.054688 284.925781 119.449219 285.355469 C 119.847656 285.78125 120.265625 286.191406 120.707031 286.578125 C 121.144531 286.964844 121.601562 287.328125 122.078125 287.667969 C 122.550781 288.007812 123.042969 288.324219 123.550781 288.617188 C 124.058594 288.90625 124.578125 289.171875 125.109375 289.414062 C 125.644531 289.652344 126.1875 289.867188 126.742188 290.050781 C 127.296875 290.234375 127.859375 290.394531 128.429688 290.519531 C 129 290.648438 129.578125 290.75 130.15625 290.820312 C 130.738281 290.890625 131.320312 290.933594 131.90625 290.949219 C 132.488281 290.960938 133.074219 290.945312 133.65625 290.898438 C 134.238281 290.851562 134.820312 290.777344 135.394531 290.675781 C 135.96875 290.570312 136.539062 290.4375 137.101562 290.277344 C 137.664062 290.117188 138.214844 289.929688 138.761719 289.714844 C 139.304688 289.496094 139.835938 289.253906 140.355469 288.984375 C 140.875 288.71875 141.378906 288.421875 141.867188 288.101562 C 142.359375 287.78125 142.828125 287.441406 143.285156 287.074219 C 143.742188 286.707031 144.175781 286.316406 144.59375 285.90625 C 145.007812 285.496094 145.40625 285.066406 145.777344 284.617188 C 146.152344 284.164062 146.5 283.699219 146.828125 283.210938 C 147.152344 282.726562 147.457031 282.226562 147.730469 281.710938 C 148.007812 281.195312 148.257812 280.667969 148.480469 280.128906 C 148.707031 279.585938 148.902344 279.039062 149.070312 278.476562 C 149.238281 277.917969 149.378906 277.351562 149.492188 276.777344 C 149.601562 276.203125 149.683594 275.625 149.738281 275.042969 C 149.792969 274.460938 149.816406 273.875 149.8125 273.292969 C 149.808594 272.707031 149.773438 272.125 149.710938 271.542969 C 149.648438 270.960938 149.558594 270.382812 149.4375 269.8125 Z M 87.070312 250.097656 C 86.429688 250.214844 85.785156 250.265625 85.136719 250.257812 C 84.488281 250.246094 83.847656 250.171875 83.210938 250.035156 C 82.578125 249.894531 81.960938 249.699219 81.367188 249.4375 C 80.769531 249.179688 80.207031 248.867188 79.671875 248.496094 C 79.140625 248.125 78.648438 247.707031 78.195312 247.238281 C 77.746094 246.773438 77.34375 246.265625 76.992188 245.71875 C 76.640625 245.171875 76.347656 244.597656 76.109375 243.996094 C 75.871094 243.390625 75.695312 242.769531 75.578125 242.128906 C 75.460938 241.492188 75.410156 240.847656 75.421875 240.195312 C 75.433594 239.546875 75.507812 238.90625 75.644531 238.273438 C 75.785156 237.636719 75.984375 237.023438 76.242188 236.425781 C 76.5 235.832031 76.816406 235.265625 77.1875 234.734375 C 77.554688 234.199219 77.976562 233.707031 78.441406 233.257812 C 78.910156 232.804688 79.417969 232.40625 79.960938 232.054688 C 80.507812 231.703125 81.085938 231.410156 81.6875 231.171875 C 82.292969 230.933594 82.914062 230.757812 83.554688 230.640625 C 84.191406 230.527344 84.835938 230.476562 85.484375 230.488281 C 86.136719 230.5 86.777344 230.574219 87.410156 230.710938 C 88.046875 230.851562 88.660156 231.050781 89.257812 231.308594 C 89.851562 231.570312 90.414062 231.882812 90.949219 232.253906 C 91.480469 232.625 91.972656 233.042969 92.425781 233.511719 C 92.875 233.980469 93.277344 234.484375 93.625 235.03125 C 93.976562 235.578125 94.269531 236.15625 94.507812 236.757812 C 94.746094 237.363281 94.921875 237.984375 95.035156 238.625 C 95.152344 239.261719 95.203125 239.90625 95.195312 240.554688 C 95.183594 241.203125 95.109375 241.84375 94.96875 242.480469 C 94.832031 243.113281 94.632812 243.726562 94.375 244.320312 C 94.117188 244.917969 93.800781 245.480469 93.433594 246.011719 C 93.0625 246.546875 92.644531 247.039062 92.175781 247.488281 C 91.710938 247.9375 91.203125 248.339844 90.65625 248.691406 C 90.113281 249.039062 89.535156 249.335938 88.933594 249.570312 C 88.328125 249.808594 87.707031 249.984375 87.070312 250.097656 Z M 124.734375 235.46875 C 124.394531 235.398438 124.082031 235.265625 123.796875 235.070312 C 123.511719 234.875 123.273438 234.632812 123.082031 234.34375 C 122.894531 234.054688 122.765625 233.738281 122.703125 233.398438 C 122.636719 233.058594 122.640625 232.71875 122.710938 232.382812 C 122.78125 232.042969 122.914062 231.730469 123.109375 231.445312 C 123.304688 231.160156 123.546875 230.921875 123.835938 230.730469 C 124.125 230.542969 124.4375 230.414062 124.777344 230.347656 C 125.117188 230.285156 125.457031 230.285156 125.796875 230.355469 C 126.136719 230.421875 126.449219 230.550781 126.734375 230.742188 C 127.023438 230.933594 127.261719 231.171875 127.449219 231.460938 C 127.640625 231.75 127.765625 232.0625 127.828125 232.402344 C 127.890625 232.742188 127.886719 233.078125 127.8125 233.414062 C 127.746094 233.753906 127.613281 234.070312 127.421875 234.355469 C 127.226562 234.644531 126.984375 234.886719 126.695312 235.078125 C 126.410156 235.269531 126.09375 235.402344 125.753906 235.46875 C 125.414062 235.535156 125.074219 235.535156 124.734375 235.46875 Z M 133.980469 282.6875 C 132.691406 282.917969 131.410156 282.894531 130.128906 282.617188 C 128.851562 282.339844 127.671875 281.832031 126.589844 281.089844 C 125.511719 280.347656 124.617188 279.421875 123.910156 278.316406 C 123.203125 277.210938 122.734375 276.011719 122.507812 274.722656 C 122.386719 274.082031 122.332031 273.4375 122.339844 272.785156 C 122.347656 272.132812 122.417969 271.488281 122.554688 270.851562 C 122.6875 270.214844 122.886719 269.597656 123.144531 269 C 123.402344 268.402344 123.714844 267.835938 124.085938 267.300781 C 124.457031 266.765625 124.875 266.273438 125.34375 265.820312 C 125.808594 265.367188 126.316406 264.964844 126.867188 264.613281 C 127.414062 264.261719 127.988281 263.964844 128.597656 263.726562 C 129.203125 263.492188 129.824219 263.316406 130.464844 263.199219 C 131.757812 262.964844 133.042969 262.984375 134.324219 263.261719 C 135.605469 263.539062 136.785156 264.050781 137.863281 264.796875 C 138.933594 265.550781 139.824219 266.480469 140.527344 267.582031 C 141.234375 268.683594 141.707031 269.878906 141.941406 271.167969 C 142.054688 271.808594 142.105469 272.453125 142.089844 273.101562 C 142.078125 273.75 142.003906 274.390625 141.863281 275.023438 C 141.726562 275.660156 141.527344 276.273438 141.269531 276.867188 C 141.011719 277.464844 140.695312 278.027344 140.328125 278.5625 C 139.957031 279.097656 139.542969 279.589844 139.074219 280.042969 C 138.609375 280.496094 138.105469 280.898438 137.5625 281.25 C 137.015625 281.605469 136.445312 281.902344 135.839844 282.144531 C 135.238281 282.386719 134.621094 282.566406 133.980469 282.6875 Z M 133.980469 282.6875 " fill-opacity="1" fill-rule="nonzero"/><path fill="#f8f9f0" d="M 187.503906 359.136719 L 38.859375 273.320312 L 38.859375 101.679688 L 187.503906 15.863281 L 336.140625 101.679688 L 336.140625 273.320312 Z M 41.5 271.796875 L 187.503906 356.089844 L 333.5 271.796875 L 333.5 103.203125 L 187.503906 18.910156 L 41.5 103.203125 Z M 41.5 271.796875 " fill-opacity="1" fill-rule="nonzero"/><path fill="#f8f9f0" d="M 246.304688 177.113281 L 250.519531 172.105469 L 252.519531 173.789062 L 248.304688 178.796875 Z M 246.304688 177.113281 " fill-opacity="1" fill-rule="nonzero"/><path fill="#f8f9f0" d="M 181.3125 260.246094 L 179.296875 258.546875 L 185.914062 250.699219 L 187.925781 252.398438 Z M 191.140625 248.578125 L 189.128906 246.882812 L 195.742188 239.035156 L 197.757812 240.738281 Z M 200.972656 236.914062 L 198.957031 235.222656 L 205.574219 227.375 L 207.589844 229.074219 Z M 210.808594 225.253906 L 208.789062 223.558594 L 215.410156 215.710938 L 217.417969 217.414062 Z M 220.640625 213.589844 L 218.601562 211.898438 L 225.210938 204.050781 L 227.226562 205.742188 Z M 230.464844 201.929688 L 228.449219 200.242188 L 235.089844 192.386719 L 237.097656 194.082031 Z M 240.335938 190.265625 L 238.320312 188.5625 L 244.894531 180.753906 L 246.910156 182.449219 Z M 240.335938 190.265625 " fill-opacity="1" fill-rule="nonzero"/><path fill="#f8f9f0" d="M 173.691406 268.558594 C 173.433594 268.558594 173.199219 268.488281 172.984375 268.351562 C 172.769531 268.210938 172.609375 268.027344 172.5 267.796875 C 172.394531 267.5625 172.355469 267.320312 172.390625 267.066406 C 172.421875 266.8125 172.523438 266.589844 172.6875 266.394531 L 176.082031 262.359375 L 178.097656 264.0625 L 176.539062 265.90625 L 178.953125 265.90625 L 178.953125 268.542969 L 173.707031 268.542969 Z M 173.691406 268.558594 " fill-opacity="1" fill-rule="nonzero"/><path fill="#f8f9f0" d="M 184.175781 268.5 L 184.175781 265.863281 L 194.667969 265.808594 L 194.667969 268.449219 Z M 199.863281 268.449219 L 199.863281 265.816406 L 210.355469 265.757812 L 210.355469 268.386719 Z M 215.550781 268.363281 L 215.550781 265.726562 L 226.042969 265.667969 L 226.042969 268.304688 Z M 231.230469 268.273438 L 231.230469 265.636719 L 241.722656 265.585938 L 241.722656 268.214844 Z M 246.910156 268.183594 L 246.910156 265.554688 L 257.402344 265.496094 L 257.402344 268.125 Z M 246.910156 268.183594 " fill-opacity="1" fill-rule="nonzero"/><path fill="#f8f9f0" d="M 262.589844 268.058594 L 262.589844 265.425781 L 266.546875 265.425781 L 266.546875 261.46875 L 269.179688 261.46875 L 269.179688 266.714844 C 269.179688 266.890625 269.144531 267.054688 269.078125 267.214844 C 269.011719 267.375 268.917969 267.519531 268.796875 267.640625 C 268.675781 267.765625 268.535156 267.859375 268.375 267.925781 C 268.214844 267.992188 268.046875 268.027344 267.875 268.027344 Z M 262.589844 268.058594 " fill-opacity="1" fill-rule="nonzero"/><path fill="#f8f9f0" d="M 266.53125 248.210938 L 269.164062 248.210938 L 269.164062 257.460938 L 266.53125 257.460938 Z M 266.53125 248.210938 " fill-opacity="1" fill-rule="nonzero"/><path fill="#f8f9f0" d="M 266.53125 237.640625 L 269.164062 237.640625 L 269.164062 244.230469 L 266.53125 244.230469 Z M 266.53125 237.640625 " fill-opacity="1" fill-rule="nonzero"/></svg>