<svg xmlns="http://www.w3.org/2000/svg" xmlns:xlink="http://www.w3.org/1999/xlink" width="500" zoomAndPan="magnify" viewBox="0 0 375 374.999991" height="500" preserveAspectRatio="xMidYMid meet" version="1.0"><defs><clipPath id="8c9ea24df5"><path d="M 25.226562 0 L 349.976562 0 L 349.976562 375 L 25.226562 375 Z M 25.226562 0 " clip-rule="nonzero"/></clipPath></defs><g clip-path="url(#8c9ea24df5)"><path fill="#231f20" d="M 25.226562 93.8125 L 25.226562 281.1875 L 187.609375 374.878906 L 349.984375 281.1875 L 349.984375 93.8125 L 187.609375 0.121094 Z M 25.226562 93.8125 " fill-opacity="1" fill-rule="nonzero"/></g><path fill="#58595b" d="M 212.710938 84.5625 L 242.710938 84.5625 L 242.710938 153.171875 L 212.710938 153.171875 Z M 212.710938 84.5625 " fill-opacity="1" fill-rule="nonzero"/><path fill="#ffffff" d="M 218.195312 212.445312 L 269.335938 239.492188 L 269.335938 151.441406 Z M 218.195312 212.445312 " fill-opacity="1" fill-rule="nonzero"/><path fill="#ffffff" d="M 102.835938 239.492188 L 269.335938 151.441406 L 186.085938 104.617188 L 102.835938 151.441406 Z M 102.835938 239.492188 " fill-opacity="1" fill-rule="nonzero"/><path fill="#231f20" d="M 206.128906 151.441406 C 206.128906 152.097656 206.09375 152.75 206.03125 153.402344 C 205.964844 154.058594 205.871094 154.703125 205.742188 155.347656 C 205.613281 155.992188 205.453125 156.625 205.265625 157.253906 C 205.074219 157.882812 204.851562 158.5 204.601562 159.105469 C 204.351562 159.710938 204.070312 160.304688 203.761719 160.882812 C 203.453125 161.460938 203.113281 162.023438 202.75 162.566406 C 202.386719 163.113281 201.996094 163.640625 201.578125 164.144531 C 201.160156 164.652344 200.722656 165.136719 200.257812 165.601562 C 199.792969 166.066406 199.308594 166.507812 198.800781 166.921875 C 198.292969 167.339844 197.765625 167.726562 197.222656 168.09375 C 196.675781 168.457031 196.113281 168.792969 195.535156 169.101562 C 194.957031 169.414062 194.363281 169.691406 193.757812 169.945312 C 193.148438 170.195312 192.53125 170.414062 191.90625 170.605469 C 191.277344 170.796875 190.640625 170.957031 189.996094 171.082031 C 189.351562 171.210938 188.703125 171.308594 188.050781 171.371094 C 187.398438 171.4375 186.742188 171.46875 186.085938 171.46875 C 185.429688 171.46875 184.777344 171.4375 184.121094 171.371094 C 183.46875 171.308594 182.820312 171.210938 182.175781 171.082031 C 181.535156 170.957031 180.898438 170.796875 180.269531 170.605469 C 179.640625 170.414062 179.023438 170.195312 178.417969 169.945312 C 177.8125 169.691406 177.21875 169.414062 176.640625 169.101562 C 176.0625 168.792969 175.5 168.457031 174.953125 168.09375 C 174.40625 167.726562 173.882812 167.339844 173.375 166.921875 C 172.867188 166.507812 172.382812 166.066406 171.917969 165.601562 C 171.453125 165.136719 171.011719 164.652344 170.597656 164.144531 C 170.179688 163.640625 169.789062 163.113281 169.425781 162.566406 C 169.058594 162.023438 168.722656 161.460938 168.414062 160.882812 C 168.105469 160.304688 167.824219 159.710938 167.574219 159.105469 C 167.320312 158.5 167.101562 157.882812 166.910156 157.253906 C 166.71875 156.625 166.558594 155.992188 166.433594 155.347656 C 166.304688 154.703125 166.207031 154.058594 166.144531 153.402344 C 166.078125 152.75 166.046875 152.097656 166.046875 151.441406 C 166.046875 150.785156 166.078125 150.128906 166.144531 149.476562 C 166.207031 148.824219 166.304688 148.175781 166.433594 147.535156 C 166.558594 146.890625 166.71875 146.253906 166.910156 145.628906 C 167.101562 145 167.320312 144.382812 167.574219 143.777344 C 167.824219 143.171875 168.105469 142.578125 168.414062 142 C 168.722656 141.421875 169.058594 140.859375 169.425781 140.316406 C 169.789062 139.769531 170.179688 139.242188 170.597656 138.734375 C 171.011719 138.230469 171.453125 137.742188 171.917969 137.28125 C 172.382812 136.816406 172.867188 136.375 173.375 135.960938 C 173.882812 135.542969 174.40625 135.152344 174.953125 134.789062 C 175.5 134.425781 176.0625 134.089844 176.640625 133.777344 C 177.21875 133.46875 177.8125 133.1875 178.417969 132.9375 C 179.023438 132.6875 179.640625 132.464844 180.269531 132.277344 C 180.898438 132.085938 181.535156 131.925781 182.175781 131.796875 C 182.820312 131.671875 183.46875 131.574219 184.121094 131.511719 C 184.777344 131.445312 185.429688 131.414062 186.085938 131.414062 C 186.742188 131.414062 187.398438 131.445312 188.050781 131.511719 C 188.703125 131.574219 189.351562 131.671875 189.996094 131.796875 C 190.640625 131.925781 191.277344 132.085938 191.90625 132.277344 C 192.53125 132.464844 193.148438 132.6875 193.757812 132.9375 C 194.363281 133.1875 194.957031 133.46875 195.535156 133.777344 C 196.113281 134.089844 196.675781 134.425781 197.222656 134.789062 C 197.765625 135.152344 198.292969 135.542969 198.800781 135.960938 C 199.308594 136.375 199.792969 136.816406 200.257812 137.28125 C 200.722656 137.742188 201.160156 138.230469 201.578125 138.734375 C 201.996094 139.242188 202.386719 139.769531 202.75 140.316406 C 203.113281 140.859375 203.453125 141.421875 203.761719 142 C 204.070312 142.578125 204.351562 143.171875 204.601562 143.777344 C 204.851562 144.382812 205.074219 145 205.265625 145.628906 C 205.453125 146.253906 205.613281 146.890625 205.742188 147.535156 C 205.871094 148.175781 205.964844 148.824219 206.03125 149.476562 C 206.09375 150.128906 206.128906 150.785156 206.128906 151.441406 Z M 206.128906 151.441406 " fill-opacity="1" fill-rule="nonzero"/><path fill="#58595b" d="M 149.53125 269.8125 C 149.429688 269.246094 149.296875 268.691406 149.136719 268.136719 C 148.980469 267.585938 148.792969 267.042969 148.582031 266.511719 C 148.371094 265.976562 148.132812 265.457031 147.871094 264.945312 C 147.609375 264.4375 147.320312 263.941406 147.007812 263.457031 C 146.699219 262.976562 146.363281 262.511719 146.007812 262.0625 C 145.648438 261.613281 145.269531 261.183594 144.871094 260.769531 C 144.472656 260.359375 144.054688 259.96875 143.617188 259.597656 C 143.179688 259.226562 142.722656 258.875 142.25 258.550781 C 141.777344 258.222656 141.292969 257.921875 140.789062 257.640625 C 140.289062 257.363281 139.773438 257.109375 139.25 256.882812 C 138.722656 256.652344 138.183594 256.449219 137.640625 256.273438 C 137.09375 256.097656 136.539062 255.949219 135.976562 255.828125 C 135.417969 255.707031 134.851562 255.613281 134.28125 255.546875 C 133.710938 255.480469 133.140625 255.441406 132.566406 255.429688 C 131.992188 255.421875 131.417969 255.4375 130.84375 255.484375 C 130.273438 255.53125 129.703125 255.605469 129.140625 255.707031 C 128.488281 255.855469 127.789062 255.976562 127.144531 256.191406 L 129.621094 236.808594 L 166.820312 217.1875 L 167.417969 216.886719 C 173.464844 213.351562 169.871094 204.148438 169.835938 204.101562 L 131.195312 224.445312 L 136.722656 181.136719 C 136.722656 181.136719 126.824219 181.007812 125.621094 187.882812 L 125.546875 188.550781 L 120.167969 230.222656 L 102.867188 239.335938 C 102.808594 238.585938 102.71875 237.957031 102.597656 237.269531 C 102.496094 236.703125 102.367188 236.144531 102.210938 235.59375 C 102.050781 235.042969 101.867188 234.5 101.660156 233.964844 C 101.449219 233.433594 101.210938 232.910156 100.949219 232.398438 C 100.691406 231.890625 100.402344 231.394531 100.09375 230.910156 C 99.785156 230.429688 99.449219 229.960938 99.09375 229.511719 C 98.738281 229.0625 98.359375 228.632812 97.960938 228.21875 C 97.5625 227.808594 97.144531 227.414062 96.707031 227.042969 C 96.273438 226.671875 95.816406 226.324219 95.347656 225.996094 C 94.875 225.667969 94.386719 225.367188 93.886719 225.085938 C 93.386719 224.808594 92.871094 224.554688 92.347656 224.324219 C 91.820312 224.09375 91.285156 223.894531 90.738281 223.71875 C 90.191406 223.539062 89.640625 223.390625 89.078125 223.269531 C 88.515625 223.148438 87.953125 223.054688 87.382812 222.988281 C 86.8125 222.921875 86.242188 222.882812 85.667969 222.875 C 85.09375 222.863281 84.519531 222.882812 83.949219 222.925781 C 83.375 222.972656 82.808594 223.046875 82.242188 223.148438 C 81.679688 223.25 81.121094 223.378906 80.570312 223.535156 C 80.015625 223.695312 79.472656 223.875 78.941406 224.085938 C 78.40625 224.296875 77.882812 224.53125 77.371094 224.792969 C 76.863281 225.054688 76.367188 225.339844 75.882812 225.652344 C 75.398438 225.960938 74.933594 226.292969 74.484375 226.648438 C 74.035156 227.003906 73.601562 227.382812 73.191406 227.78125 C 72.777344 228.179688 72.382812 228.597656 72.011719 229.03125 C 71.640625 229.46875 71.292969 229.921875 70.964844 230.394531 C 70.636719 230.867188 70.332031 231.351562 70.054688 231.851562 C 69.773438 232.351562 69.519531 232.867188 69.292969 233.390625 C 69.0625 233.917969 68.859375 234.453125 68.683594 235 C 68.507812 235.546875 68.359375 236.097656 68.234375 236.660156 C 68.113281 237.21875 68.019531 237.785156 67.953125 238.351562 C 67.886719 238.921875 67.847656 239.496094 67.839844 240.066406 C 67.828125 240.640625 67.847656 241.214844 67.894531 241.785156 C 67.9375 242.355469 68.011719 242.925781 68.113281 243.488281 C 68.214844 244.054688 68.347656 244.609375 68.503906 245.164062 C 68.660156 245.714844 68.84375 246.257812 69.054688 246.789062 C 69.261719 247.324219 69.5 247.847656 69.761719 248.355469 C 70.023438 248.867188 70.308594 249.363281 70.617188 249.847656 C 70.929688 250.328125 71.261719 250.792969 71.617188 251.242188 C 71.972656 251.695312 72.351562 252.125 72.75 252.539062 C 73.148438 252.949219 73.566406 253.34375 74.003906 253.714844 C 74.4375 254.085938 74.894531 254.433594 75.363281 254.761719 C 75.835938 255.089844 76.324219 255.390625 76.824219 255.671875 C 77.324219 255.949219 77.839844 256.203125 78.363281 256.433594 C 78.890625 256.660156 79.425781 256.863281 79.972656 257.039062 C 80.519531 257.214844 81.070312 257.367188 81.632812 257.488281 C 82.191406 257.609375 82.757812 257.703125 83.328125 257.769531 C 83.898438 257.835938 84.46875 257.875 85.042969 257.886719 C 85.617188 257.894531 86.191406 257.878906 86.761719 257.832031 C 87.335938 257.785156 87.902344 257.710938 88.46875 257.609375 C 89.707031 257.402344 90.902344 257.054688 92.058594 256.566406 C 93.089844 256.136719 94.074219 255.621094 95.015625 255.023438 L 118.570312 242.605469 L 115.160156 269.046875 C 114.675781 271.363281 114.628906 273.683594 115.015625 276.015625 C 115.105469 276.597656 115.21875 277.167969 115.363281 277.734375 C 115.507812 278.300781 115.679688 278.859375 115.878906 279.410156 C 116.078125 279.960938 116.304688 280.5 116.558594 281.023438 C 116.8125 281.550781 117.089844 282.066406 117.398438 282.5625 C 117.703125 283.0625 118.03125 283.546875 118.382812 284.011719 C 118.738281 284.476562 119.113281 284.925781 119.511719 285.355469 C 119.910156 285.78125 120.328125 286.191406 120.769531 286.578125 C 121.207031 286.964844 121.664062 287.328125 122.140625 287.667969 C 122.617188 288.007812 123.105469 288.324219 123.613281 288.617188 C 124.121094 288.90625 124.640625 289.171875 125.175781 289.414062 C 125.710938 289.652344 126.253906 289.867188 126.808594 290.050781 C 127.363281 290.234375 127.925781 290.394531 128.496094 290.519531 C 129.070312 290.648438 129.644531 290.75 130.226562 290.820312 C 130.804688 290.890625 131.390625 290.933594 131.972656 290.949219 C 132.558594 290.960938 133.144531 290.945312 133.726562 290.898438 C 134.308594 290.851562 134.890625 290.777344 135.464844 290.675781 C 136.042969 290.570312 136.613281 290.4375 137.175781 290.277344 C 137.738281 290.117188 138.289062 289.929688 138.832031 289.714844 C 139.378906 289.496094 139.910156 289.253906 140.429688 288.984375 C 140.949219 288.71875 141.453125 288.421875 141.945312 288.101562 C 142.433594 287.78125 142.90625 287.441406 143.363281 287.074219 C 143.816406 286.707031 144.253906 286.316406 144.671875 285.90625 C 145.085938 285.496094 145.484375 285.066406 145.855469 284.617188 C 146.230469 284.164062 146.578125 283.699219 146.90625 283.210938 C 147.234375 282.726562 147.535156 282.226562 147.8125 281.710938 C 148.089844 281.195312 148.339844 280.667969 148.5625 280.128906 C 148.785156 279.585938 148.980469 279.039062 149.152344 278.476562 C 149.320312 277.917969 149.460938 277.351562 149.570312 276.777344 C 149.683594 276.203125 149.765625 275.625 149.820312 275.042969 C 149.875 274.460938 149.898438 273.875 149.894531 273.292969 C 149.890625 272.707031 149.855469 272.125 149.792969 271.542969 C 149.730469 270.960938 149.636719 270.382812 149.515625 269.8125 Z M 87.109375 250.097656 C 86.46875 250.214844 85.824219 250.265625 85.175781 250.257812 C 84.527344 250.246094 83.882812 250.171875 83.25 250.035156 C 82.613281 249.894531 82 249.699219 81.402344 249.4375 C 80.808594 249.179688 80.242188 248.867188 79.707031 248.496094 C 79.175781 248.125 78.679688 247.707031 78.230469 247.238281 C 77.777344 246.773438 77.378906 246.265625 77.027344 245.71875 C 76.675781 245.171875 76.378906 244.597656 76.140625 243.996094 C 75.902344 243.390625 75.726562 242.769531 75.609375 242.128906 C 75.496094 241.492188 75.441406 240.847656 75.453125 240.195312 C 75.464844 239.546875 75.539062 238.90625 75.679688 238.273438 C 75.816406 237.636719 76.015625 237.023438 76.273438 236.425781 C 76.535156 235.832031 76.847656 235.265625 77.21875 234.734375 C 77.589844 234.199219 78.007812 233.707031 78.476562 233.257812 C 78.945312 232.804688 79.453125 232.40625 80 232.054688 C 80.546875 231.703125 81.121094 231.410156 81.726562 231.171875 C 82.332031 230.933594 82.953125 230.757812 83.589844 230.640625 C 84.230469 230.527344 84.875 230.476562 85.527344 230.488281 C 86.175781 230.5 86.816406 230.574219 87.453125 230.710938 C 88.085938 230.851562 88.703125 231.050781 89.296875 231.308594 C 89.894531 231.570312 90.457031 231.882812 90.992188 232.253906 C 91.523438 232.625 92.019531 233.042969 92.46875 233.511719 C 92.917969 233.980469 93.320312 234.484375 93.671875 235.03125 C 94.023438 235.578125 94.316406 236.15625 94.554688 236.757812 C 94.792969 237.363281 94.96875 237.984375 95.082031 238.625 C 95.199219 239.261719 95.25 239.90625 95.238281 240.554688 C 95.226562 241.203125 95.152344 241.84375 95.015625 242.480469 C 94.878906 243.113281 94.679688 243.726562 94.421875 244.320312 C 94.160156 244.917969 93.847656 245.480469 93.476562 246.011719 C 93.105469 246.546875 92.6875 247.039062 92.21875 247.488281 C 91.753906 247.9375 91.246094 248.339844 90.699219 248.691406 C 90.152344 249.039062 89.578125 249.335938 88.972656 249.570312 C 88.371094 249.808594 87.75 249.984375 87.109375 250.097656 Z M 124.796875 235.46875 C 124.457031 235.398438 124.144531 235.265625 123.859375 235.070312 C 123.574219 234.875 123.335938 234.632812 123.148438 234.34375 C 122.957031 234.054688 122.832031 233.738281 122.765625 233.398438 C 122.703125 233.058594 122.703125 232.71875 122.773438 232.382812 C 122.847656 232.042969 122.976562 231.730469 123.171875 231.445312 C 123.367188 231.160156 123.609375 230.921875 123.898438 230.730469 C 124.1875 230.542969 124.503906 230.414062 124.84375 230.347656 C 125.183594 230.285156 125.523438 230.285156 125.863281 230.355469 C 126.203125 230.421875 126.515625 230.550781 126.800781 230.742188 C 127.089844 230.933594 127.328125 231.171875 127.515625 231.460938 C 127.707031 231.75 127.832031 232.0625 127.894531 232.402344 C 127.960938 232.742188 127.953125 233.078125 127.878906 233.414062 C 127.8125 233.753906 127.679688 234.070312 127.488281 234.355469 C 127.292969 234.644531 127.050781 234.886719 126.761719 235.078125 C 126.472656 235.269531 126.160156 235.402344 125.820312 235.46875 C 125.476562 235.535156 125.136719 235.535156 124.796875 235.46875 Z M 134.050781 282.6875 C 132.761719 282.917969 131.476562 282.894531 130.199219 282.617188 C 128.917969 282.339844 127.738281 281.832031 126.65625 281.089844 C 125.578125 280.347656 124.683594 279.421875 123.972656 278.316406 C 123.265625 277.210938 122.796875 276.011719 122.570312 274.722656 C 122.449219 274.082031 122.394531 273.4375 122.402344 272.785156 C 122.410156 272.132812 122.480469 271.488281 122.617188 270.851562 C 122.753906 270.214844 122.949219 269.597656 123.207031 269 C 123.464844 268.402344 123.777344 267.835938 124.148438 267.300781 C 124.519531 266.765625 124.9375 266.273438 125.40625 265.820312 C 125.875 265.367188 126.382812 264.964844 126.929688 264.613281 C 127.480469 264.261719 128.058594 263.964844 128.664062 263.726562 C 129.269531 263.492188 129.894531 263.316406 130.535156 263.199219 C 131.824219 262.964844 133.113281 262.984375 134.394531 263.261719 C 135.679688 263.539062 136.859375 264.050781 137.9375 264.796875 C 139.007812 265.550781 139.898438 266.480469 140.605469 267.582031 C 141.308594 268.683594 141.78125 269.878906 142.015625 271.167969 C 142.128906 271.808594 142.179688 272.453125 142.167969 273.101562 C 142.152344 273.75 142.078125 274.390625 141.941406 275.023438 C 141.800781 275.660156 141.601562 276.273438 141.34375 276.867188 C 141.085938 277.464844 140.769531 278.027344 140.402344 278.5625 C 140.03125 279.097656 139.617188 279.589844 139.148438 280.042969 C 138.683594 280.496094 138.179688 280.898438 137.632812 281.25 C 137.089844 281.605469 136.515625 281.902344 135.914062 282.144531 C 135.3125 282.386719 134.691406 282.566406 134.050781 282.6875 Z M 134.050781 282.6875 " fill-opacity="1" fill-rule="nonzero"/><path fill="#ffffff" d="M 187.609375 359.136719 L 38.871094 273.320312 L 38.871094 101.679688 L 187.609375 15.863281 L 336.34375 101.679688 L 336.34375 273.320312 Z M 41.511719 271.796875 L 187.609375 356.089844 L 333.703125 271.796875 L 333.703125 103.203125 L 187.609375 18.910156 L 41.511719 103.203125 Z M 41.511719 271.796875 " fill-opacity="1" fill-rule="nonzero"/><path fill="#ffffff" d="M 246.449219 177.113281 L 250.667969 172.105469 L 252.667969 173.789062 L 248.449219 178.796875 Z M 246.449219 177.113281 " fill-opacity="1" fill-rule="nonzero"/><path fill="#ffffff" d="M 181.414062 260.246094 L 179.398438 258.546875 L 186.019531 250.699219 L 188.03125 252.398438 Z M 191.246094 248.578125 L 189.238281 246.882812 L 195.851562 239.035156 L 197.871094 240.738281 Z M 201.085938 236.914062 L 199.070312 235.222656 L 205.691406 227.375 L 207.710938 229.074219 Z M 210.925781 225.253906 L 208.910156 223.558594 L 215.53125 215.710938 L 217.542969 217.414062 Z M 220.765625 213.589844 L 218.726562 211.898438 L 225.34375 204.050781 L 227.359375 205.742188 Z M 230.601562 201.929688 L 228.582031 200.242188 L 235.226562 192.386719 L 237.238281 194.082031 Z M 240.476562 190.265625 L 238.460938 188.5625 L 245.039062 180.753906 L 247.054688 182.449219 Z M 240.476562 190.265625 " fill-opacity="1" fill-rule="nonzero"/><path fill="#ffffff" d="M 173.789062 268.558594 C 173.53125 268.558594 173.296875 268.488281 173.082031 268.351562 C 172.867188 268.210938 172.703125 268.027344 172.597656 267.796875 C 172.488281 267.5625 172.453125 267.320312 172.484375 267.066406 C 172.519531 266.8125 172.617188 266.589844 172.78125 266.394531 L 176.179688 262.359375 L 178.195312 264.0625 L 176.636719 265.90625 L 179.050781 265.90625 L 179.050781 268.542969 L 173.800781 268.542969 Z M 173.789062 268.558594 " fill-opacity="1" fill-rule="nonzero"/><path fill="#ffffff" d="M 184.28125 268.5 L 184.28125 265.863281 L 194.78125 265.808594 L 194.78125 268.449219 Z M 199.976562 268.449219 L 199.976562 265.816406 L 210.476562 265.757812 L 210.476562 268.386719 Z M 215.675781 268.363281 L 215.675781 265.726562 L 226.175781 265.667969 L 226.175781 268.304688 Z M 231.363281 268.273438 L 231.363281 265.636719 L 241.863281 265.585938 L 241.863281 268.214844 Z M 247.054688 268.183594 L 247.054688 265.554688 L 257.554688 265.496094 L 257.554688 268.125 Z M 247.054688 268.183594 " fill-opacity="1" fill-rule="nonzero"/><path fill="#ffffff" d="M 262.746094 268.058594 L 262.746094 265.425781 L 266.703125 265.425781 L 266.703125 261.46875 L 269.335938 261.46875 L 269.335938 266.714844 C 269.335938 266.890625 269.304688 267.054688 269.238281 267.214844 C 269.171875 267.375 269.078125 267.519531 268.957031 267.640625 C 268.832031 267.765625 268.691406 267.859375 268.53125 267.925781 C 268.371094 267.992188 268.207031 268.027344 268.03125 268.027344 Z M 262.746094 268.058594 " fill-opacity="1" fill-rule="nonzero"/><path fill="#ffffff" d="M 266.691406 248.210938 L 269.320312 248.210938 L 269.320312 257.460938 L 266.691406 257.460938 Z M 266.691406 248.210938 " fill-opacity="1" fill-rule="nonzero"/><path fill="#ffffff" d="M 266.691406 237.640625 L 269.320312 237.640625 L 269.320312 244.230469 L 266.691406 244.230469 Z M 266.691406 237.640625 " fill-opacity="1" fill-rule="nonzero"/></svg>